<svg data-v-423bf9ae="" xmlns="http://www.w3.org/2000/svg" viewBox="0 0 469 90" class="iconLeft"><!----><!----><!----><g data-v-423bf9ae="" id="e93ce895-93fd-4300-b88f-16cc75ad5f94" fill="#ddd0e6" transform="matrix(5.983545159509695,0,0,5.983545159509695,169.5263061307124,11.095738371836902)"><path d="M9.23 10.51L11.07 10.51L11.07 0.71L8.96 0.71L5.89 4.93L2.83 0.71L0.70 0.71L0.70 10.51L2.55 10.51L2.55 3.39L5.67 7.66L6.03 7.66L9.23 3.40ZM19.53 7.66C19.80 4.82 18.35 3.39 16.04 3.39C13.80 3.39 12.38 4.90 12.38 7C12.38 9.21 13.79 10.68 16.17 10.68C17.22 10.68 18.41 10.32 19.14 9.56L18.05 8.48C17.65 8.89 16.83 9.13 16.20 9.13C14.99 9.13 14.25 8.51 14.14 7.66ZM14.17 6.24C14.42 5.35 15.18 4.90 16.10 4.90C17.08 4.90 17.78 5.35 17.89 6.24ZM27.01 10.50L27.01 6.80C27.01 5.89 27.58 5.10 28.50 5.10C29.43 5.10 29.81 5.87 29.81 6.78L29.81 10.50L31.51 10.50L31.51 6.78C31.51 4.70 30.55 3.50 28.59 3.50C27.69 3.50 26.89 3.78 26.28 4.76C25.89 3.81 25.06 3.47 24.23 3.47C23.58 3.47 22.78 3.72 22.41 4.42L22.29 3.58L20.71 3.58L20.71 10.50L22.41 10.50L22.41 6.80C22.41 5.89 22.96 5.07 23.88 5.07C24.82 5.07 25.30 5.89 25.30 6.80L25.30 10.50ZM36.50 3.46C34.30 3.46 32.93 5.08 32.93 7.06C32.93 9.04 34.27 10.65 36.51 10.65C38.75 10.65 40.11 9.04 40.11 7.06C40.11 5.08 38.70 3.46 36.50 3.46ZM36.51 5.01C37.66 5.01 38.39 6.02 38.39 7.06C38.39 8.11 37.76 9.09 36.51 9.09C35.27 9.09 34.64 8.11 34.64 7.06C34.64 6.02 35.28 5.01 36.51 5.01ZM42.99 3.57L42.99 10.50L41.29 10.50L41.29 3.57ZM41.13 1.65C41.13 2.98 43.15 2.98 43.15 1.65C43.15 0.32 41.13 0.32 41.13 1.65ZM44.53 3.60L44.53 10.50L46.24 10.50L46.24 6.86C46.24 5.59 47.07 5.11 47.96 5.11C48.52 5.11 48.85 5.26 49.20 5.56L49.97 4.07C49.59 3.70 48.90 3.42 48.19 3.42C47.49 3.42 46.77 3.54 46.24 4.40L46.12 3.60Z"></path></g><defs data-v-423bf9ae=""><linearGradient data-v-423bf9ae="" gradientTransform="rotate(25)" id="471965a6-f497-4e2d-96e6-70a41f5eb27c" x1="0%" y1="0%" x2="100%" y2="0%"><stop data-v-423bf9ae="" offset="0%" style="stop-color: rgb(75, 39, 155); stop-opacity: 1;"></stop><stop data-v-423bf9ae="" offset="100%" style="stop-color: rgb(223, 153, 216); stop-opacity: 1;"></stop></linearGradient></defs><g data-v-423bf9ae="" id="8b2b720e-3629-4817-82e5-467c9df66d24" transform="matrix(4.803586662404586,0,0,4.803586662404586,0.14261340152661717,-31.22538662899096)" stroke="none" fill="url(#471965a6-f497-4e2d-96e6-70a41f5eb27c)"><path d="M16 19.586l7.496-12.954H8.504zM7.496 12.414L0 25.368h14.992zM24.504 12.414l-7.496 12.954H32z"></path></g><!----></svg>